<svg xmlns="http://www.w3.org/2000/svg" width="416" height="416" viewBox="0 0 416 416" fill="#df3314">
  <path d="M199,16s5.481-6.781,6-7a49.145,49.145,0,0,1-4,8c-4.708,7.814-10.159,22.936-14,39-5.514,23.06-5.218,52.279,5,91,8.066,30.566,36.668,77.141,48,89,4.154,4.347,9.926,9.568,15.239,14.325,5.04,4.513,9.878,8.065,14.761,12.675,25.667,22.171,41.223,47.223,33,92-3.468,18.884-13.039,35.99-27,50,0,0-.513,1.849-1,0-9.778-48.575-61.074-84.7-87-120a259.516,259.516,0,0,1-34-62c-8.758-23.184-9.455-55.163-8-45-1.4-9.779.636-21.93,0-32-0.935-14.8,8.209-44.678,12-55A340.976,340.976,0,0,1,199,16ZM141,57c-2.115,5.663-4.081,11.236-6,17-3.781,11.358-7.108,22.665-10,34-14.773,57.9-16.372,114.875-11,134,6.584,23.438,31.249,66.35,73,106,2.961,2.812,7.916,7.3,12,11,10.733,9.714,21.226,18.9,32,28,4,3.375,7.965,6.682,12,10-0.717,0,1.679.908-15-7-12.96-7.863-26.917-14.8-40-23-32.422-20.319-63.718-41.556-90-68-7.153-7.2-15.535-14.218-21-23-13.193-21.2-7.382-56.091,0-78,8.151-24.19,16.9-52.644,23-65C112.614,107.443,126.158,82.359,141,57Zm92,36c3.421,5.069,2.857,12.672,5,19,3.682,10.871,7.029,16.607,13,26,8.363,11.047,33.525,30.631,52,51,10.18,13.255,24.384,34.788,34,57a101.333,101.333,0,0,1,5.5,15.73A99.493,99.493,0,0,1,344,303c-1,4.757-2.1,9.379-3.331,14.08-1.686,6.409-3.552,12.638-5.669,18.92h-2a207.183,207.183,0,0,0-29-70c-8.23-12.553-21.664-26.9-36-43,0,0-30.529-29.281-38-53-3.409-10.822-2.461-25.205-4-43C225.218,117.954,229.554,101.9,233,93Z"/>
</svg>
